<?xml version="1.0" encoding="utf-8"?>
<!-- Generator: Adobe Illustrator 22.1.0, SVG Export Plug-In . SVG Version: 6.00 Build 0)  -->
<svg version="1.1" id="Layer_1" xmlns="http://www.w3.org/2000/svg" xmlns:xlink="http://www.w3.org/1999/xlink" x="0px" y="0px"
	 viewBox="0 0 175 175" style="enable-background:new 0 0 175 175;" xml:space="preserve">
<g>
	<g>
		<polygon points="20.7,33.1 20.7,121.9 36.8,121.9 36.8,136.2 2,136.2 2,0.7 45.7,0.7 45.7,8 		"/>
	</g>
	<g>
		<polygon points="173,0.7 173,136.2 129.3,136.2 129.3,128.8 154.3,103.8 154.3,15 138.2,15 138.2,0.7 		"/>
	</g>
	<polygon points="143.3,23.8 143.3,99.1 129.3,113 31.7,113 31.7,37.8 45.7,23.8 	"/>
	<g>
		<path d="M6,170.7c-2.7-2.2-4-5.2-4-8.8v-2.7c0-3.6,1.3-6.5,4-8.8c2.7-2.2,5.9-3.4,9.5-3.4c4.3,0,7.9,1.5,10.8,4.6l-5.4,4
			c-1.6-1.6-3.4-2.4-5.4-2.4c-1.8,0-3.4,0.7-4.7,2.2s-2,3.1-2,5.1s0.6,3.7,1.9,5.1c1.3,1.4,2.9,2.2,4.9,2.2s3.8-0.8,5.4-2.4l5.4,4
			c-2.9,3.1-6.5,4.6-10.8,4.6C11.9,174.1,8.7,172.9,6,170.7z"/>
		<path d="M32.2,150.3c3.4-2.2,7.4-3.2,11.9-3.2c3.2,0,5.8,0.9,7.7,2.7s2.8,4.5,2.8,8.1v16.2H47v-2.2c-2.2,1.4-4.2,2.2-5.9,2.2
			c-3.6,0-6.3-0.8-8.1-2.3s-2.7-3.6-2.7-6.3c0-2.5,0.8-4.8,2.6-6.7c1.7-2,4.4-3,8.2-3c1.7,0,3.7,0.5,5.9,1.6v-0.8
			c0-2-1.5-3.1-4.3-3.2c-3.2,0-5.8,0.5-7.6,1.6L32.2,150.3z M47,166v-3c-0.7-1.4-2.4-2.1-5.1-2.1c-3.2,0.4-4.9,1.6-5.1,3.8
			c0.2,2.1,1.9,3.3,5.1,3.5C44.6,168.1,46.3,167.4,47,166z"/>
		<path d="M68.9,156.9v17.2h-7.6v-26.2l7.6-0.8v2.5c1.8-1.6,4-2.4,6.5-2.4c3.4,0,6,1,7.8,3.1s2.7,4.5,2.7,7.2v16.7h-7.6v-14.8
			c0-1.8-0.4-3.2-1.3-4.2s-2.3-1.5-4.1-1.6C71.3,153.6,70,154.7,68.9,156.9z"/>
		<path d="M97.6,147.1l6.3,16.9l6.5-16.9h7.7l-10.8,27h-6.5l-10.8-27H97.6z"/>
		<path d="M123.5,150.3c3.4-2.2,7.4-3.2,11.9-3.2c3.2,0,5.8,0.9,7.7,2.7s2.8,4.5,2.8,8.1v16.2h-7.6v-2.2c-2.2,1.4-4.2,2.2-5.9,2.2
			c-3.6,0-6.3-0.8-8.1-2.3c-1.8-1.5-2.7-3.6-2.7-6.3c0-2.5,0.9-4.8,2.6-6.7c1.7-2,4.4-3,8.2-3c1.7,0,3.7,0.5,5.9,1.6v-0.8
			c0-2-1.5-3.1-4.3-3.2c-3.2,0-5.8,0.5-7.6,1.6L123.5,150.3z M138.4,166v-3c-0.7-1.4-2.4-2.1-5.1-2.1c-3.2,0.4-4.9,1.6-5.1,3.8
			c0.2,2.1,1.9,3.3,5.1,3.5C136,168.1,137.7,167.4,138.4,166z"/>
		<path d="M167.9,147.8c1.4,0.6,2.7,1.5,3.9,2.7l-4.2,4.8c-1.2-1.5-2.8-2.2-4.6-2.2s-3,0.3-3.6,1s-0.6,1.3,0,1.8s1.8,1,3.6,1.4
			c2.7,0.3,4.9,1,6.6,2.3c1.7,1.3,2.6,3.5,2.6,6.7c0,2.6-1,4.5-3,5.9s-4.4,2.1-7,2.1s-4.7-0.4-6.4-1.1s-3.2-1.7-4.4-2.9l4.2-4.7
			c1.2,1.5,3.1,2.3,5.7,2.5c2.1,0,3.4-0.3,4-1s0.7-1.3,0.3-2s-1.8-1.1-4.3-1.4c-2.2-0.3-4.2-0.9-6-2s-2.7-3.2-2.7-6.2
			c0-2.8,1-4.9,3.1-6.4s4.2-2.2,6.4-2.2C164.6,146.9,166.5,147.2,167.9,147.8z"/>
	</g>
</g>
</svg>
